{"title":"Lolita.1962.1080p.BluRay.H264.AAC","uid":15557160,"size":3145676993,"categoryP":"video","categoryS":"hd___movies","magnet":"?xt=urn:btih:7afcca15b82cf11da28f446c8ca1feb5d9d3dd02&amp;dn=Lolita.1962.1080p.BluRay.H264.AAC&amp;tr=udp%3A%2F%2Ftracker.leechers-paradise.org%3A6969&amp;tr=udp%3A%2F%2Fzer0day.ch%3A1337&amp;tr=udp%3A%2F%2Fopen.demonii.com%3A1337&amp;tr=udp%3A%2F%2Ftracker.coppersurfer.tk%3A6969&amp;tr=udp%3A%2F%2Fexodus.desync.com%3A6969","seeders":4,"leechers":1,"uploader":"Horisarte","files":5,"time":1471082352,"description":"Video\r\nID                                       : 1\r\nFormat                                   : AVC\r\nFormat/Info                              : Advanced Video Codec\r\nFormat profile                           :   \r\nFormat settings, CABAC                   : Yes\r\nFormat settings, ReFrames                : 4 frames\r\nCodec ID                                 : avc1\r\nCodec ID/Info                            : Advanced Video Coding\r\nDuration                                 : 2 h 33 min\r\nBit rate                                 : 2 500 kb/s\r\nWidth                                    : 1 792 pixels\r\nHeight                                   : 1 080 pixels\r\nDisplay aspect ratio                     : 5:3\r\nFrame rate mode                          : Constant\r\nFrame rate                               : 23.976 (23976/1000) FPS\r\nColor space                              : YUV\r\nChroma subsampling                       : 4:2:0\r\nBit depth                                : 8 bits\r\nScan type                                : Progressive\r\nBits/(Pixel*Frame)                       : 0.054\r\nStream size                              : 2.68 GiB (92%)\r\nWriting library                          : x264 core 148 r2638M 7599210\r\nEncoding settings                        : cabac=1 / ref=4 / deblock=1:-1:-1 / analyse=0x3:0x113 / me=umh / subme=9 / psy=1 / psy_rd=1.00:0.15 / mixed_ref=1 / me_range=24 / chroma_me=1 / trellis=2 / 8x8dct=1 / cqm=0 / deadzone=21,11 / fast_pskip=1 / chroma_qp_offset=-3 / threads=32 / lookahead_threads=4 / sliced_threads=0 / nr=0 / decimate=1 / interlaced=0 / bluray_compat=0 / constrained_intra=0 / bframes=3 / b_pyramid=2 / b_adapt=2 / b_bias=0 / direct=3 / weightb=1 / open_gop=0 / weightp=2 / keyint=250 / keyint_min=25 / scenecut=40 / intra_refresh=0 / rc_lookahead=50 / rc=2pass / mbtree=1 / bitrate=2500 / ratetol=1.0 / qcomp=0.60 / qpmin=0 / qpmax=69 / qpstep=4 / cplxblur=20.0 / qblur=0.5 / vbv_maxrate=31250 / vbv_bufsize=31250 / nal_hrd=none / filler=0 / ip_ratio=1.40 / aq=3:1.00\r\nEncoded date                             : UTC 2016-08-12 20:27:03\r\nTagged date                              : UTC 2016-08-12 20:27:03\r\n\r\nAudio\r\nID                                       : 2\r\nFormat                                   : AAC\r\nFormat/Info                              : Advanced Audio Codec\r\nFormat profile                           : LC\r\nCodec ID                                 : 40\r\nDuration                                 : 2 h 33 min\r\nBit rate mode                            : Constant\r\nBit rate                                 : 224 kb/s\r\nChannel(s)                               : 2 channels\r\nChannel(s)_Original                      : 1 channel\r\nChannel positions                        : Front: C\r\nSampling rate                            : 48.0 kHz\r\nFrame rate                               : 46.875 FPS (1024 spf)\r\nCompression mode                         : Lossy\r\nStream size                              : 246 MiB (8%)\r\nLanguage                                 : English\r\nDefault                                  : Yes\r\nAlternate group                          : 1\r\nEncoded date                             : UTC 2016-08-12 20:27:03\r\nTagged date                              : UTC 2016-08-12 20:27:03","torrent":{"xt":"urn:btih:7afcca15b82cf11da28f446c8ca1feb5d9d3dd02","amp;dn":"Lolita.1962.1080p.BluRay.H264.AAC","amp;tr":["udp%3A%2F%2Ftracker.leechers-paradise.org%3A6969","udp%3A%2F%2Fzer0day.ch%3A1337","udp%3A%2F%2Fopen.demonii.com%3A1337","udp%3A%2F%2Ftracker.coppersurfer.tk%3A6969","udp%3A%2F%2Fexodus.desync.com%3A6969"],"infoHash":"7afcca15b82cf11da28f446c8ca1feb5d9d3dd02","infoHashBuffer":{"type":"Buffer","data":[122,252,202,21,184,44,241,29,162,143,68,108,140,161,254,181,217,211,221,2]},"announce":[],"urlList":[]}}